<svg xmlns="http://www.w3.org/2000/svg" xmlns:xlink="http://www.w3.org/1999/xlink" viewBox="0,0,256,256" width="50px" height="50px" fill-rule="nonzero"><g fill="#22e6dc" fill-rule="nonzero" stroke="none" stroke-width="1" stroke-linecap="butt" stroke-linejoin="miter" stroke-miterlimit="10" stroke-dasharray="" stroke-dashoffset="0" font-family="none" font-weight="none" font-size="none" text-anchor="none" style="mix-blend-mode: normal"><g transform="scale(5.12,5.12)"><path d="M25,2c-12.683,0 -23,10.317 -23,23c0,12.683 10.317,23 23,23c12.683,0 23,-10.317 23,-23c0,-12.683 -10.317,-23 -23,-23zM14,42.854v-16.854l7.824,19.733c-2.834,-0.433 -5.479,-1.429 -7.824,-2.879zM17.991,5.229c2.196,-0.781 4.548,-1.229 7.009,-1.229c2.461,0 4.813,0.448 7.009,1.229l-7.009,15.771zM36,42.854c-2.345,1.45 -4.99,2.446 -7.824,2.879l7.824,-19.733z"></path></g></g></svg>